<svg viewBox="0 0 44 50" fill="none" xmlns="http://www.w3.org/2000/svg"><g clip-path="url(#clip0_131_377)"><path d="M4.6875 3.125C2.09961 3.125 0 5.22461 0 7.8125V42.1875C0 44.7754 2.09961 46.875 4.6875 46.875H39.0625C41.6504 46.875 43.75 44.7754 43.75 42.1875V7.8125C43.75 5.22461 41.6504 3.125 39.0625 3.125H4.6875ZM14.3438 16.1361C16.2613 16.1361 17.965 16.7991 19.2196 17.7935C20.3798 18.7165 20.9231 19.6398 21.3972 20.4686L18.0844 22.1237C17.8474 21.5803 17.5622 21.0117 16.8299 20.397C16.0244 19.7571 15.2207 19.5685 14.5326 19.5685C11.8348 19.5685 10.4145 22.0775 10.4145 24.8699C10.4145 28.5392 12.2856 30.3602 14.5326 30.3602C16.7104 30.3602 17.5871 28.8455 18.1537 27.8763L21.4453 29.5566C20.8286 30.526 20.2369 31.4741 18.9111 32.3954C18.202 32.8925 16.5696 33.8639 14.2494 33.8639C9.82285 33.8639 6.25 30.6455 6.25 24.9873C6.25 20.0424 9.61084 16.136 14.3438 16.136V16.1361ZM21.7151 16.6564H26.1648L29.6201 28.5391L33.0503 16.6564H37.5L31.7013 33.3666H27.4424L21.7151 16.6565V16.6564Z" fill="#FBFBFB"/></g><defs><clipPath id="clip0_131_377"><rect width="43.75" height="50" fill="white"/></clipPath></defs></svg>