<svg viewBox="0 0 51 50" fill="none" xmlns="http://www.w3.org/2000/svg"><path fill-rule="evenodd" clip-rule="evenodd" d="M2.08495 5.91267C2.08495 4.89711 2.48838 3.92315 3.20648 3.20504C3.92459 2.48693 4.89855 2.0835 5.91411 2.0835H44.0849C44.5882 2.08268 45.0867 2.18113 45.5519 2.37322C46.0171 2.56531 46.4398 2.84727 46.7959 3.20295C47.1519 3.55863 47.4344 3.98105 47.627 4.44602C47.8196 4.91099 47.9186 5.40939 47.9183 5.91267V44.0835C47.9188 44.5869 47.8201 45.0854 47.6278 45.5506C47.4355 46.0158 47.1533 46.4385 46.7975 46.7946C46.4416 47.1506 46.0191 47.433 45.554 47.6256C45.0889 47.8181 44.5904 47.9171 44.087 47.9168H5.91411C5.41108 47.9168 4.91298 47.8177 4.44827 47.6252C3.98356 47.4326 3.56134 47.1504 3.20575 46.7946C2.85015 46.4388 2.56814 46.0164 2.37583 45.5516C2.18351 45.0868 2.08467 44.5886 2.08495 44.0856V5.91267ZM20.2266 19.5585H26.4329V22.6752C27.3287 20.8835 29.6204 19.271 33.0641 19.271C39.6662 19.271 41.2308 22.8398 41.2308 29.3877V41.5168H34.5495V30.8793C34.5495 27.1502 33.6537 25.046 31.3787 25.046C28.2224 25.046 26.9099 27.3148 26.9099 30.8793V41.5168H20.2266V19.5585ZM8.76828 41.2314H15.4516V19.271H8.76828V41.2293V41.2314ZM16.4079 12.1085C16.4205 12.6807 16.3186 13.2497 16.1084 13.7821C15.8981 14.3144 15.5836 14.7994 15.1833 15.2086C14.7831 15.6177 14.3052 15.9428 13.7776 16.1648C13.25 16.3867 12.6834 16.501 12.111 16.501C11.5386 16.501 10.972 16.3867 10.4444 16.1648C9.91682 15.9428 9.43888 15.6177 9.03863 15.2086C8.63838 14.7994 8.32389 14.3144 8.11361 13.7821C7.90334 13.2497 7.80151 12.6807 7.81411 12.1085C7.83885 10.9853 8.30241 9.9164 9.10554 9.13076C9.90867 8.34513 10.9875 7.9052 12.111 7.9052C13.2345 7.9052 14.3133 8.34513 15.1164 9.13076C15.9196 9.9164 16.3831 10.9853 16.4079 12.1085Z" fill="#FBFBFB"/></svg>