<svg viewBox="0 0 50 50" fill="none" xmlns="http://www.w3.org/2000/svg"><g clip-path="url(#clip0_119_411)"><path d="M48.9599 13.5565C48.6768 12.5466 48.1253 11.6322 47.3641 10.9107C46.5813 10.1669 45.622 9.6349 44.5766 9.36482C40.6641 8.33357 24.9891 8.33357 24.9891 8.33357C18.4544 8.25922 11.9212 8.58623 5.42659 9.31274C4.38115 9.60277 3.42359 10.1467 2.63909 10.8961C1.86825 11.6377 1.30992 12.5523 1.01825 13.5544C0.317614 17.3289 -0.0228045 21.1614 0.00158716 25.0002C-0.0234128 28.8357 0.31617 32.6669 1.01825 36.4461C1.30367 37.444 1.85992 38.3544 2.63284 39.0898C3.40575 39.8252 4.36825 40.3565 5.42659 40.6377C9.39117 41.6669 24.9891 41.6669 24.9891 41.6669C31.5321 41.7414 38.0736 41.4144 44.5766 40.6877C45.622 40.4177 46.5813 39.8856 47.3641 39.1419C48.1251 38.4205 48.6759 37.506 48.9578 36.4961C49.6768 32.7231 50.0263 28.889 50.0016 25.0482C50.0557 21.1911 49.7065 17.3389 48.9599 13.5544V13.5565ZM20.0058 32.1336V17.869L33.0474 25.0023L20.0058 32.1336Z" fill="#FBFBFB"/></g><defs><clipPath id="clip0_119_411"><rect width="50" height="50" fill="white" transform="translate(0.00158691)"/></clipPath></defs></svg>